<svg width="20" height="20" viewBox="0 0 20 20" fill="none" xmlns="http://www.w3.org/2000/svg">
<path d="M5.83333 13.5833C7.66667 13.5833 9.16667 12.0583 9.16667 10.2083C9.16667 9.24163 8.69167 8.32496 7.74167 7.54996C6.79167 6.77496 6.075 5.62496 5.83333 4.41663C5.59167 5.62496 4.88333 6.78329 3.925 7.54996C2.96667 8.31663 2.5 9.24996 2.5 10.2083C2.5 12.0583 4 13.5833 5.83333 13.5833Z" stroke="black" stroke-width="1.5" stroke-linecap="round" stroke-linejoin="round"/>
<path d="M10.4667 5.50006C11.0398 4.58433 11.4461 3.57426 11.6667 2.51672C12.0833 4.60006 13.3333 6.60006 15 7.93339C16.6667 9.26672 17.5 10.8501 17.5 12.5167C17.5048 13.6686 17.1674 14.796 16.5307 15.756C15.8939 16.7159 14.9865 17.4652 13.9234 17.9088C12.8604 18.3524 11.6895 18.4704 10.5593 18.2478C9.42911 18.0252 8.39045 17.472 7.575 16.6584" stroke="black" stroke-width="1.5" stroke-linecap="round" stroke-linejoin="round"/>
</svg>
