<svg width="16" height="16" viewBox="0 0 16 16" fill="none" xmlns="http://www.w3.org/2000/svg">
<path d="M8.53325 13.0667C8.70227 13.1934 8.89899 13.2782 9.1072 13.314C9.31541 13.3499 9.52915 13.3357 9.73081 13.2727C9.93247 13.2097 10.1163 13.0997 10.2671 12.9517C10.4179 12.8038 10.5314 12.6221 10.5982 12.4216C10.665 12.2212 10.6832 12.0078 10.6513 11.7989C10.6195 11.5901 10.5384 11.3918 10.4149 11.2204C10.2914 11.049 10.1289 10.9094 9.94083 10.8131C9.75277 10.7169 9.54452 10.6667 9.33325 10.6667H1.33325" stroke="#5E6065" stroke-width="1.33333" stroke-linecap="round" stroke-linejoin="round"/>
<path d="M11.6666 5.33334C11.837 5.10606 12.0628 4.92613 12.3223 4.81063C12.5819 4.69513 12.8666 4.64789 13.1496 4.67341C13.4325 4.69892 13.7043 4.79634 13.939 4.9564C14.1737 5.11647 14.3636 5.33388 14.4906 5.58798C14.6177 5.84208 14.6777 6.12445 14.6649 6.40825C14.6521 6.69206 14.567 6.96789 14.4177 7.20956C14.2683 7.45122 14.0597 7.6507 13.8115 7.78904C13.5634 7.92739 13.284 8.00001 12.9999 8.00001H1.33325" stroke="#5E6065" stroke-width="1.33333" stroke-linecap="round" stroke-linejoin="round"/>
<path d="M6.53325 2.93334C6.70227 2.80658 6.89899 2.72179 7.1072 2.68597C7.31541 2.65016 7.52915 2.66433 7.73081 2.72732C7.93247 2.79031 8.11627 2.90033 8.26707 3.04829C8.41787 3.19626 8.53135 3.37794 8.59816 3.57837C8.66497 3.7788 8.6832 3.99223 8.65134 4.20108C8.61948 4.40994 8.53844 4.60823 8.41491 4.77962C8.29138 4.95101 8.12889 5.09059 7.94083 5.18686C7.75277 5.28313 7.54452 5.33334 7.33325 5.33334H1.33325" stroke="#5E6065" stroke-width="1.33333" stroke-linecap="round" stroke-linejoin="round"/>
</svg>
