<svg width="20" height="20" viewBox="0 0 20 20" fill="none" xmlns="http://www.w3.org/2000/svg">
<path d="M11.6667 7.94667V5.83333C11.6667 4.94928 12.0179 4.10143 12.643 3.47631C13.2681 2.85119 14.1159 2.5 15 2.5H16.25C16.3605 2.5 16.4665 2.5439 16.5446 2.62204C16.6228 2.70018 16.6667 2.80616 16.6667 2.91667V4.16667C16.6667 5.05072 16.3155 5.89857 15.6904 6.52369C15.0652 7.14881 14.2174 7.5 13.3333 7.5C12.4493 7.5 11.6014 7.85119 10.9763 8.47631C10.3512 9.10143 10 9.94928 10 10.8333C10 12.5 10.8333 13.3333 10.8333 15C10.8333 15.9015 10.5409 16.7788 10 17.5" stroke="black" stroke-width="1.66667" stroke-linecap="round" stroke-linejoin="round"/>
<path d="M3.33333 7.49996C3.95237 7.03568 4.68847 6.75296 5.45914 6.68346C6.22982 6.61397 7.00462 6.76046 7.69672 7.10651C8.38883 7.45257 8.9709 7.98451 9.37771 8.64275C9.78452 9.30098 10 10.0595 10 10.8333C9.38096 11.2976 8.64486 11.5803 7.87419 11.6498C7.10352 11.7193 6.32872 11.5728 5.63661 11.2267C4.9445 10.8807 4.36243 10.3487 3.95562 9.69051C3.54881 9.03227 3.33333 8.27376 3.33333 7.49996Z" stroke="black" stroke-width="1.66667" stroke-linecap="round" stroke-linejoin="round"/>
<path d="M4.16667 17.5H15.8333" stroke="black" stroke-width="1.66667" stroke-linecap="round" stroke-linejoin="round"/>
</svg>
