<svg width="20" height="20" viewBox="0 0 20 20" fill="none" xmlns="http://www.w3.org/2000/svg">
<path d="M10 2.5H4.16667C3.72464 2.5 3.30072 2.67559 2.98816 2.98816C2.67559 3.30072 2.5 3.72464 2.5 4.16667V15.8333C2.5 16.2754 2.67559 16.6993 2.98816 17.0118C3.30072 17.3244 3.72464 17.5 4.16667 17.5H15.8333C16.2754 17.5 16.6993 17.3244 17.0118 17.0118C17.3244 16.6993 17.5 16.2754 17.5 15.8333V10" stroke="#0A0A0A" stroke-width="1.33333" stroke-linecap="round" stroke-linejoin="round"/>
<path d="M15.3125 2.18757C15.644 1.85605 16.0936 1.6698 16.5625 1.6698C17.0313 1.6698 17.481 1.85605 17.8125 2.18757C18.144 2.51909 18.3302 2.96873 18.3302 3.43757C18.3302 3.90641 18.144 4.35605 17.8125 4.68757L10.3016 12.1992C10.1038 12.3969 9.85931 12.5417 9.59081 12.6201L7.19664 13.3201C7.12493 13.341 7.04892 13.3422 6.97656 13.3237C6.90421 13.3052 6.83816 13.2675 6.78535 13.2147C6.73253 13.1619 6.69488 13.0958 6.67634 13.0235C6.65781 12.9511 6.65906 12.8751 6.67997 12.8034L7.37997 10.4092C7.45875 10.1409 7.60375 9.89678 7.80164 9.69923L15.3125 2.18757Z" stroke="#0A0A0A" stroke-width="1.33333" stroke-linecap="round" stroke-linejoin="round"/>
</svg>
