<svg width="24" height="24" viewBox="0 0 24 24" fill="none" xmlns="http://www.w3.org/2000/svg">
<path d="M13.9234 21C12.1332 21 10.5402 20.5037 9.14442 19.5111C7.74865 18.5185 6.76251 17.237 6.18599 15.6667H3.91028C3.65237 15.6667 3.43633 15.5813 3.26216 15.4107C3.08799 15.24 3.00061 15.029 3 14.7778C2.99939 14.5265 3.08678 14.3156 3.26216 14.1449C3.43754 13.9742 3.65358 13.8889 3.91028 13.8889H5.77637C5.73085 13.5333 5.71204 13.2039 5.71993 12.9004C5.72782 12.597 5.74663 12.3339 5.77637 12.1111H3.91028C3.65237 12.1111 3.43633 12.0258 3.26216 11.8551C3.08799 11.6844 3.00061 11.4735 3 11.2222C2.99939 10.971 3.08678 10.76 3.26216 10.5893C3.43754 10.4187 3.65358 10.3333 3.91028 10.3333H6.18599C6.76251 8.76296 7.74865 7.48148 9.14442 6.48889C10.5402 5.4963 12.1332 5 13.9234 5C14.8034 5 15.6417 5.12593 16.4385 5.37778C17.2353 5.62963 17.9748 5.99259 18.6569 6.46667C18.8693 6.61481 18.9831 6.81126 18.9982 7.056C19.0134 7.30074 18.93 7.5043 18.7479 7.66667C18.5659 7.84444 18.3459 7.93719 18.088 7.94489C17.83 7.95259 17.5949 7.88948 17.3825 7.75556C16.8818 7.44444 16.3396 7.20385 15.7558 7.03378C15.172 6.8637 14.5612 6.77837 13.9234 6.77778C12.6338 6.77778 11.4808 7.10756 10.4643 7.76711C9.44785 8.42667 8.68169 9.28207 8.16586 10.3333H13.0131C13.271 10.3333 13.4874 10.4187 13.6622 10.5893C13.8369 10.76 13.924 10.971 13.9234 11.2222C13.9228 11.4735 13.8354 11.6847 13.6612 11.856C13.4871 12.0273 13.271 12.1123 13.0131 12.1111H7.61969C7.55901 12.5111 7.53625 12.8631 7.55142 13.1671C7.56659 13.4711 7.58935 13.7117 7.61969 13.8889H13.0131C13.271 13.8889 13.4874 13.9742 13.6622 14.1449C13.8369 14.3156 13.924 14.5265 13.9234 14.7778C13.9228 15.029 13.8354 15.2403 13.6612 15.4116C13.4871 15.5828 13.271 15.6679 13.0131 15.6667H8.16586C8.68169 16.7185 9.44785 17.5742 10.4643 18.2338C11.4808 18.8933 12.6338 19.2228 13.9234 19.2222C14.5606 19.2222 15.1714 19.1333 15.7558 18.9556C16.3402 18.7778 16.8824 18.5333 17.3825 18.2222C17.5949 18.0889 17.83 18.0296 18.088 18.0444C18.3459 18.0593 18.5659 18.1556 18.7479 18.3333C18.93 18.4963 19.0134 18.7001 18.9982 18.9449C18.9831 19.1896 18.8693 19.3858 18.6569 19.5333C17.9742 20.0074 17.2347 20.3704 16.4385 20.6222C15.6423 20.8741 14.804 21 13.9234 21Z" fill="black"/>
</svg>
