<svg width="20" height="20" viewBox="0 0 20 20" fill="none" xmlns="http://www.w3.org/2000/svg">
<path d="M10 13.75C7.9375 13.75 6.25 12.0625 6.25 10C6.25 7.9375 7.9375 6.25 10 6.25C12.0625 6.25 13.75 7.9375 13.75 10C13.75 12.0625 12.0625 13.75 10 13.75ZM10 7.5C8.625 7.5 7.5 8.625 7.5 10C7.5 11.375 8.625 12.5 10 12.5C11.375 12.5 12.5 11.375 12.5 10C12.5 8.625 11.375 7.5 10 7.5Z" fill="#7D8087"/>
<path d="M10 16.25C6.01253 16.25 2.51253 13.825 1.28753 10.2C1.23733 10.0714 1.23733 9.92861 1.28753 9.8C2.51253 6.1875 6.02503 3.75 10 3.75C13.975 3.75 17.4875 6.175 18.7125 9.8C18.7625 9.925 18.7625 10.075 18.7125 10.2C17.4875 13.8125 13.975 16.25 10 16.25ZM2.53753 10C3.65003 13 6.62503 15 10 15C13.375 15 16.3375 13 17.4625 10C16.35 7 13.375 5 10 5C6.62503 5 3.66253 7 2.53753 10Z" fill="#7D8087"/>
<path d="M17.5 18.125C17.418 18.126 17.3368 18.1098 17.2614 18.0775C17.1861 18.0452 17.1183 17.9975 17.0625 17.9375L2.0625 2.93749C1.8125 2.68749 1.8125 2.29999 2.0625 2.04999C2.3125 1.79999 2.7 1.79999 2.95 2.04999L17.9375 17.0625C18.1875 17.3125 18.1875 17.7 17.9375 17.95C17.8125 18.075 17.65 18.1375 17.5 18.1375V18.125Z" fill="#7D8087"/>
</svg>
