<svg width="20" height="20" viewBox="0 0 20 20" fill="none" xmlns="http://www.w3.org/2000/svg">
<path d="M9.16666 16.6666C7.70338 16.6711 6.29187 16.1254 5.21209 15.1378C4.13231 14.1502 3.46313 12.7929 3.33727 11.335C3.21141 9.87718 3.63807 8.42526 4.53262 7.26724C5.42717 6.10923 6.72427 5.32971 8.16666 5.08329C12.9167 4.16663 14.1667 3.73329 15.8333 1.66663C16.6667 3.33329 17.5 5.14996 17.5 8.33329C17.5 12.9166 13.5167 16.6666 9.16666 16.6666Z" stroke="black" stroke-width="1.66667" stroke-linecap="round" stroke-linejoin="round"/>
<path d="M1.66667 17.5C1.66667 15 3.20834 13.0333 5.90001 12.5C7.91667 12.1 10 10.8333 10.8333 10" stroke="black" stroke-width="1.66667" stroke-linecap="round" stroke-linejoin="round"/>
</svg>
