<svg width="20" height="20" viewBox="0 0 20 20" fill="none" xmlns="http://www.w3.org/2000/svg">
<path d="M15 17.5V8.33333C15 8.11232 14.9122 7.90036 14.7559 7.74408C14.5996 7.5878 14.3877 7.5 14.1667 7.5H5.83333C5.61232 7.5 5.40036 7.5878 5.24408 7.74408C5.0878 7.90036 5 8.11232 5 8.33333V17.5" stroke="black" stroke-width="1.66667" stroke-linecap="round" stroke-linejoin="round"/>
<path d="M18.3333 15.8334C18.3333 16.2754 18.1577 16.6993 17.8452 17.0119C17.5326 17.3244 17.1087 17.5 16.6667 17.5H3.33333C2.8913 17.5 2.46738 17.3244 2.15482 17.0119C1.84226 16.6993 1.66666 16.2754 1.66666 15.8334V6.6667C1.66648 6.35285 1.75492 6.04532 1.92181 5.77951C2.08869 5.5137 2.32724 5.30042 2.61 5.1642L9.235 1.85254C9.4716 1.73022 9.73407 1.66638 10.0004 1.66638C10.2668 1.66638 10.5292 1.73022 10.7658 1.85254L17.3892 5.1642C17.6721 5.3003 17.9108 5.51353 18.0778 5.77935C18.2449 6.04517 18.3334 6.35276 18.3333 6.6667V15.8334Z" stroke="black" stroke-width="1.66667" stroke-linecap="round" stroke-linejoin="round"/>
<path d="M5 10.8334H15" stroke="black" stroke-width="1.66667" stroke-linecap="round" stroke-linejoin="round"/>
<path d="M5 14.1666H15" stroke="black" stroke-width="1.66667" stroke-linecap="round" stroke-linejoin="round"/>
</svg>
