<svg width="16" height="18" viewBox="0 0 16 18" fill="none" xmlns="http://www.w3.org/2000/svg">
<g clip-path="url(#clip0_365_955)">
<path d="M14.6667 9H13.0133C12.722 8.9993 12.4384 9.10598 12.2061 9.30373C11.9737 9.50147 11.8053 9.7794 11.7267 10.095L10.16 16.365C10.1499 16.4039 10.1288 16.4382 10.1 16.4625C10.0712 16.4868 10.0361 16.5 10 16.5C9.96394 16.5 9.92885 16.4868 9.9 16.4625C9.87115 16.4382 9.8501 16.4039 9.84 16.365L6.16 1.635C6.1499 1.59605 6.12885 1.56184 6.1 1.5375C6.07115 1.51316 6.03606 1.5 6 1.5C5.96394 1.5 5.92885 1.51316 5.9 1.5375C5.87115 1.56184 5.8501 1.59605 5.84 1.635L4.27333 7.905C4.19498 8.21937 4.02759 8.49639 3.79658 8.69401C3.56556 8.89163 3.28355 8.99907 2.99333 9H1.33333" stroke="black" stroke-width="1.5" stroke-linecap="round" stroke-linejoin="round"/>
</g>
<defs>
<clipPath id="clip0_365_955">
<rect width="16" height="18" fill="white"/>
</clipPath>
</defs>
</svg>
