<svg width="18" height="18" viewBox="0 0 18 18" fill="none" xmlns="http://www.w3.org/2000/svg">
<g clip-path="url(#clip0_365_962)">
<path d="M8.26272 2.11046C8.29485 1.93842 8.38615 1.78303 8.52079 1.6712C8.65543 1.55938 8.82494 1.49817 8.99996 1.49817C9.17499 1.49817 9.3445 1.55938 9.47914 1.6712C9.61378 1.78303 9.70508 1.93842 9.73721 2.11046L10.5255 6.27896C10.5814 6.57533 10.7255 6.84793 10.9387 7.06119C11.152 7.27446 11.4246 7.41848 11.721 7.47446L15.8895 8.26272C16.0615 8.29485 16.2169 8.38615 16.3287 8.52079C16.4405 8.65543 16.5018 8.82494 16.5018 8.99996C16.5018 9.17499 16.4405 9.3445 16.3287 9.47914C16.2169 9.61378 16.0615 9.70508 15.8895 9.73721L11.721 10.5255C11.4246 10.5814 11.152 10.7255 10.9387 10.9387C10.7255 11.152 10.5814 11.4246 10.5255 11.721L9.73721 15.8895C9.70508 16.0615 9.61378 16.2169 9.47914 16.3287C9.3445 16.4405 9.17499 16.5018 8.99996 16.5018C8.82494 16.5018 8.65543 16.4405 8.52079 16.3287C8.38615 16.2169 8.29485 16.0615 8.26272 15.8895L7.47446 11.721C7.41848 11.4246 7.27446 11.152 7.06119 10.9387C6.84793 10.7255 6.57533 10.5814 6.27896 10.5255L2.11046 9.73721C1.93842 9.70508 1.78303 9.61378 1.6712 9.47914C1.55938 9.3445 1.49817 9.17499 1.49817 8.99996C1.49817 8.82494 1.55938 8.65543 1.6712 8.52079C1.78303 8.38615 1.93842 8.29485 2.11046 8.26272L6.27896 7.47446C6.57533 7.41848 6.84793 7.27446 7.06119 7.06119C7.27446 6.84793 7.41848 6.57533 7.47446 6.27896L8.26272 2.11046Z" stroke="#2C2D2F" stroke-width="1.33333" stroke-linecap="round" stroke-linejoin="round"/>
<path d="M15 1.5V4.5" stroke="#2C2D2F" stroke-width="1.33333" stroke-linecap="round" stroke-linejoin="round"/>
<path d="M16.5 3H13.5" stroke="#2C2D2F" stroke-width="1.33333" stroke-linecap="round" stroke-linejoin="round"/>
<path d="M3 16.5C3.82843 16.5 4.5 15.8284 4.5 15C4.5 14.1716 3.82843 13.5 3 13.5C2.17157 13.5 1.5 14.1716 1.5 15C1.5 15.8284 2.17157 16.5 3 16.5Z" stroke="#2C2D2F" stroke-width="1.33333" stroke-linecap="round" stroke-linejoin="round"/>
</g>
<defs>
<clipPath id="clip0_365_962">
<rect width="18" height="18" fill="white"/>
</clipPath>
</defs>
</svg>
