<svg width="20" height="20" viewBox="0 0 20 20" fill="none" xmlns="http://www.w3.org/2000/svg">
<path d="M11.6667 3.33329V12.1166C12.3021 12.4835 12.7988 13.0498 13.0796 13.7278C13.3604 14.4057 13.4097 15.1573 13.2198 15.8661C13.0298 16.5749 12.6114 17.2012 12.0292 17.6479C11.4471 18.0946 10.7338 18.3367 10 18.3367C9.26622 18.3367 8.55294 18.0946 7.97079 17.6479C7.38865 17.2012 6.97016 16.5749 6.78025 15.8661C6.59033 15.1573 6.63959 14.4057 6.9204 13.7278C7.20121 13.0498 7.69786 12.4835 8.33333 12.1166V3.33329C8.33333 2.89127 8.50893 2.46734 8.82149 2.15478C9.13405 1.84222 9.55797 1.66663 10 1.66663C10.442 1.66663 10.8659 1.84222 11.1785 2.15478C11.4911 2.46734 11.6667 2.89127 11.6667 3.33329Z" stroke="black" stroke-width="1.5" stroke-linecap="round" stroke-linejoin="round"/>
</svg>
