<svg width="20" height="20" viewBox="0 0 20 20" fill="none" xmlns="http://www.w3.org/2000/svg">
<path d="M1.71832 10.2901C1.64887 10.103 1.64887 9.89715 1.71832 9.71006C2.39473 8.06993 3.54291 6.66759 5.01729 5.6808C6.49167 4.69402 8.22585 4.16724 9.99998 4.16724C11.7741 4.16724 13.5083 4.69402 14.9827 5.6808C16.4571 6.66759 17.6052 8.06993 18.2816 9.71006C18.3511 9.89715 18.3511 10.103 18.2816 10.2901C17.6052 11.9302 16.4571 13.3325 14.9827 14.3193C13.5083 15.3061 11.7741 15.8329 9.99998 15.8329C8.22585 15.8329 6.49167 15.3061 5.01729 14.3193C3.54291 13.3325 2.39473 11.9302 1.71832 10.2901Z" stroke="#0A0A0A" stroke-width="1.33333" stroke-linecap="round" stroke-linejoin="round"/>
<path d="M10 12.5C11.3807 12.5 12.5 11.3807 12.5 10C12.5 8.61929 11.3807 7.5 10 7.5C8.61929 7.5 7.5 8.61929 7.5 10C7.5 11.3807 8.61929 12.5 10 12.5Z" stroke="#0A0A0A" stroke-width="1.33333" stroke-linecap="round" stroke-linejoin="round"/>
</svg>
